<svg xmlns="http://www.w3.org/2000/svg" viewBox="0 0 100 125" x="0px" y="0px"><title>Artboard 2</title><g data-name="Layer 2"><path d="M14.25635,42.01611c.00873.01379.02142.02307.0304.03656.019.02863.04077.05347.06122.08093a1.98423,1.98423,0,0,0,.18921.2204c.03534.03546.07031.0697.10791.10205.0321.02777.06122.058.09521.08374.01208.00916.0257.015.038.02386.046.03326.09595.06177.14508.09125.03381.02014.06464.04443.09943.0625a2.01709,2.01709,0,0,0,.22382.092c.03674.01385.07117.02936.1087.041.02649.00824.04974.02173.07678.02893l.01385.00226c.0282.00726.05725.00781.08569.01385a1.99018,1.99018,0,0,0,.36829.04572c.01239.00031.02429.00439.03668.00452l.00916.00153.0014-.00018.00153.00018c.027,0,.05359-.01019.08063-.01129a1.96739,1.96739,0,0,0,.3786-.05225c.026-.00616.05188-.00342.07788-.01068l.0069-.002.00421-.00116,14.27551-3.994a2.00028,2.00028,0,0,0-1.07812-3.85254L19.01227,38.012A33.01372,33.01372,0,1,1,16.76416,50a2,2,0,0,0-4,0,36.97413,36.97413,0,1,0,2.61713-13.68909l-6.247-9.87634a2.00026,2.00026,0,1,0-3.38086,2.13867Z"/></g><text x="0" y="115" fill="#000000" font-size="5px" font-weight="bold" font-family="'Helvetica Neue', Helvetica, Arial-Unicode, Arial, Sans-serif">Created by Fatahillah</text><text x="0" y="120" fill="#000000" font-size="5px" font-weight="bold" font-family="'Helvetica Neue', Helvetica, Arial-Unicode, Arial, Sans-serif">from the Noun Project</text></svg>